<svg width="134" height="33" viewBox="0 0 134 33" fill="none" xmlns="http://www.w3.org/2000/svg">
<path d="M129 0H31V33H129C131.761 33 134 30.7614 134 28V5C134 2.23858 131.761 0 129 0Z" fill="#0F1418"/>
<path d="M31 0H5C2.23858 0 0 2.23858 0 5V28C0 30.7614 2.23858 33 5 33H31V0Z" fill="#3F51B5"/>
<path d="M48.619 13.1362H43.9247V16.4019H48.2386V18.8325H43.9247V24H40.9281V10.6963H48.619V13.1362ZM58.4212 24H55.6473V22.6362H55.6102C54.9731 23.7 54.0299 24.2319 52.7806 24.2319C51.859 24.2319 51.1323 23.9722 50.6004 23.4526C50.0747 22.9269 49.8118 22.228 49.8118 21.356C49.8118 19.5129 50.9035 18.4491 53.0867 18.1646L55.6658 17.8213C55.6658 16.7822 55.103 16.2627 53.9774 16.2627C52.8455 16.2627 51.7694 16.5998 50.7488 17.2739V15.0659C51.1571 14.8556 51.7137 14.6701 52.4188 14.5093C53.13 14.3485 53.7764 14.2681 54.3577 14.2681C57.0667 14.2681 58.4212 15.6195 58.4212 18.3223V24ZM55.6658 20.1406V19.5005L53.9403 19.7231C52.9878 19.8468 52.5115 20.2767 52.5115 21.0127C52.5115 21.3467 52.626 21.6219 52.8548 21.8384C53.0898 22.0487 53.4053 22.1538 53.8011 22.1538C54.3515 22.1538 54.8 21.9652 55.1463 21.5879C55.4927 21.2044 55.6658 20.722 55.6658 20.1406ZM68.1678 23.6567C67.506 24.0402 66.5504 24.2319 65.3011 24.2319C63.8414 24.2319 62.6601 23.7897 61.7571 22.9053C60.8541 22.0208 60.4026 20.8797 60.4026 19.4819C60.4026 17.8677 60.885 16.5967 61.8499 15.6689C62.8209 14.735 64.1167 14.2681 65.7371 14.2681C66.8566 14.2681 67.6668 14.4165 68.1678 14.7134V17.1997C67.5555 16.742 66.872 16.5132 66.1175 16.5132C65.2763 16.5132 64.6084 16.7606 64.1136 17.2554C63.625 17.744 63.3807 18.4212 63.3807 19.2871C63.3807 20.1283 63.6157 20.79 64.0857 21.2725C64.5558 21.7487 65.2021 21.9868 66.0247 21.9868C66.7545 21.9868 67.4689 21.758 68.1678 21.3003V23.6567ZM78.8606 20.085H72.6633C72.7623 21.4642 73.6313 22.1538 75.2703 22.1538C76.3155 22.1538 77.234 21.9064 78.0257 21.4116V23.5269C77.1474 23.9969 76.0063 24.2319 74.6023 24.2319C73.0685 24.2319 71.8779 23.8083 71.0305 22.9609C70.1832 22.1074 69.7595 20.9199 69.7595 19.3984C69.7595 17.8213 70.2172 16.5719 71.1326 15.6504C72.0479 14.7288 73.1736 14.2681 74.5095 14.2681C75.895 14.2681 76.9649 14.6794 77.7195 15.502C78.4802 16.3245 78.8606 17.4409 78.8606 18.8511V20.085ZM76.1423 18.2852C76.1423 16.9245 75.5919 16.2441 74.491 16.2441C74.0209 16.2441 73.6127 16.439 73.2664 16.8286C72.9262 17.2183 72.719 17.7038 72.6448 18.2852H76.1423ZM83.8015 22.896H83.7644V24H80.8327V9.93555H83.7644V15.9287H83.8015C84.5251 14.8216 85.5549 14.2681 86.8909 14.2681C88.1155 14.2681 89.0587 14.6886 89.7204 15.5298C90.3822 16.3709 90.7131 17.5213 90.7131 18.981C90.7131 20.5643 90.3266 21.8353 89.5535 22.7939C88.7803 23.7526 87.7475 24.2319 86.4548 24.2319C85.2859 24.2319 84.4014 23.7866 83.8015 22.896ZM83.718 18.8882V19.8623C83.718 20.4746 83.8943 20.9818 84.2468 21.3838C84.5993 21.7858 85.0508 21.9868 85.6013 21.9868C86.2693 21.9868 86.7857 21.7301 87.1506 21.2168C87.5217 20.6973 87.7073 19.9644 87.7073 19.0181C87.7073 18.2326 87.5372 17.6203 87.197 17.1812C86.863 16.7358 86.3837 16.5132 85.759 16.5132C85.1715 16.5132 84.6828 16.7327 84.2932 17.1719C83.9097 17.611 83.718 18.1831 83.718 18.8882ZM97.3703 24.2319C95.787 24.2319 94.5407 23.7897 93.6315 22.9053C92.7286 22.0146 92.2771 20.8086 92.2771 19.2871C92.2771 17.7161 92.7471 16.4884 93.6872 15.604C94.6273 14.7134 95.8983 14.2681 97.5002 14.2681C99.0774 14.2681 100.314 14.7134 101.211 15.604C102.108 16.4884 102.556 17.6605 102.556 19.1201C102.556 20.6973 102.092 21.9435 101.165 22.8589C100.243 23.7743 98.9784 24.2319 97.3703 24.2319ZM97.4445 16.5132C96.7518 16.5132 96.2137 16.7513 95.8303 17.2275C95.4468 17.7038 95.2551 18.3779 95.2551 19.25C95.2551 21.0745 95.9911 21.9868 97.4631 21.9868C98.8671 21.9868 99.569 21.0498 99.569 19.1758C99.569 17.4007 98.8609 16.5132 97.4445 16.5132ZM109.214 24.2319C107.63 24.2319 106.384 23.7897 105.475 22.9053C104.572 22.0146 104.12 20.8086 104.12 19.2871C104.12 17.7161 104.59 16.4884 105.53 15.604C106.471 14.7134 107.742 14.2681 109.343 14.2681C110.921 14.2681 112.158 14.7134 113.054 15.604C113.951 16.4884 114.4 17.6605 114.4 19.1201C114.4 20.6973 113.936 21.9435 113.008 22.8589C112.086 23.7743 110.822 24.2319 109.214 24.2319ZM109.288 16.5132C108.595 16.5132 108.057 16.7513 107.674 17.2275C107.29 17.7038 107.098 18.3779 107.098 19.25C107.098 21.0745 107.834 21.9868 109.306 21.9868C110.71 21.9868 111.412 21.0498 111.412 19.1758C111.412 17.4007 110.704 16.5132 109.288 16.5132ZM126.048 24H122.532L119.498 19.2871H119.461V24H116.529V9.93555H119.461V18.8882H119.498L122.328 14.5H125.807L122.402 18.9624L126.048 24Z" fill="white"/>
<path d="M129 0H5C2.23858 0 0 2.23858 0 5V28C0 30.7614 2.23858 33 5 33H129C131.761 33 134 30.7614 134 28V5C134 2.23858 131.761 0 129 0Z" fill="url(#paint0_linear_26_56)"/>
<path d="M26.368 16H23V29H18V16H15V12H18V9.59C18.002 6.082 19.459 4 23.592 4H27V8H24.713C23.104 8 23 8.6 23 9.723V12H27L26.368 16Z" fill="white"/>
<defs>
<linearGradient id="paint0_linear_26_56" x1="0" y1="0" x2="0" y2="33" gradientUnits="userSpaceOnUse">
<stop stop-color="#BBBBBB" stop-opacity="0.1"/>
<stop offset="1" stop-opacity="0.1"/>
</linearGradient>
</defs>
</svg>
