<svg width="118" height="33" viewBox="0 0 118 33" fill="none" xmlns="http://www.w3.org/2000/svg">
<path d="M113 0H31V33H113C115.761 33 118 30.7614 118 28V5C118 2.23858 115.761 0 113 0Z" fill="#0F1418"/>
<path d="M31 0H5C2.23858 0 0 2.23858 0 5V28C0 30.7614 2.23858 33 5 33H31V0Z" fill="#E0E0E0"/>
<path d="M60.5176 23.1094C59.2188 23.8577 57.6045 24.2319 55.6749 24.2319C53.5349 24.2319 51.8464 23.6413 50.6094 22.46C49.3786 21.2725 48.7632 19.6396 48.7632 17.5615C48.7632 15.471 49.4374 13.7671 50.7857 12.4497C52.134 11.1323 53.9276 10.4736 56.1666 10.4736C57.5767 10.4736 58.8199 10.6685 59.8961 11.0581V13.8691C58.8694 13.2754 57.6138 12.9785 56.1294 12.9785C54.8863 12.9785 53.872 13.3836 53.0865 14.1938C52.3072 14.9979 51.9175 16.0741 51.9175 17.4224C51.9175 18.7892 52.267 19.8468 52.9659 20.5952C53.671 21.3436 54.6203 21.7178 55.814 21.7178C56.5315 21.7178 57.1005 21.6157 57.5211 21.4116V18.814H54.8585V16.4204H60.5176V23.1094ZM78.4654 24H75.543V18.582C75.543 17.2028 75.0358 16.5132 74.0215 16.5132C73.5391 16.5132 73.1463 16.7204 72.8433 17.1348C72.5402 17.5492 72.3887 18.0656 72.3887 18.6841V24H69.4571V18.5264C69.4571 17.1842 68.9592 16.5132 67.9634 16.5132C67.4624 16.5132 67.0604 16.7111 66.7574 17.1069C66.4605 17.5028 66.312 18.0409 66.312 18.7212V24H63.3804V14.5H66.312V15.9844H66.3491C66.6522 15.4772 67.0759 15.0659 67.6201 14.7505C68.1706 14.4289 68.7705 14.2681 69.4199 14.2681C70.7621 14.2681 71.6805 14.8587 72.1753 16.04C72.899 14.8587 73.9628 14.2681 75.3667 14.2681C77.4325 14.2681 78.4654 15.5422 78.4654 18.0903V24ZM88.917 24H86.1431V22.6362H86.106C85.4689 23.7 84.5257 24.2319 83.2764 24.2319C82.3548 24.2319 81.6281 23.9722 81.0962 23.4526C80.5705 22.9269 80.3076 22.228 80.3076 21.356C80.3076 19.5129 81.3993 18.4491 83.5825 18.1646L86.1616 17.8213C86.1616 16.7822 85.5988 16.2627 84.4731 16.2627C83.3413 16.2627 82.2651 16.5998 81.2446 17.2739V15.0659C81.6528 14.8556 82.2095 14.6701 82.9146 14.5093C83.6258 14.3485 84.2721 14.2681 84.8535 14.2681C87.5625 14.2681 88.917 15.6195 88.917 18.3223V24ZM86.1616 20.1406V19.5005L84.436 19.7231C83.4836 19.8468 83.0073 20.2767 83.0073 21.0127C83.0073 21.3467 83.1217 21.6219 83.3506 21.8384C83.5856 22.0487 83.901 22.1538 84.2969 22.1538C84.8473 22.1538 85.2957 21.9652 85.6421 21.5879C85.9884 21.2044 86.1616 20.722 86.1616 20.1406ZM92.9487 12.9971C92.4539 12.9971 92.0488 12.8517 91.7334 12.561C91.4179 12.2642 91.2602 11.9023 91.2602 11.4756C91.2602 11.0365 91.4179 10.6777 91.7334 10.3994C92.0488 10.1211 92.4539 9.98193 92.9487 9.98193C93.4497 9.98193 93.8548 10.1211 94.164 10.3994C94.4795 10.6777 94.6372 11.0365 94.6372 11.4756C94.6372 11.9209 94.4795 12.2858 94.164 12.5703C93.8548 12.8548 93.4497 12.9971 92.9487 12.9971ZM94.396 24H91.4643V14.5H94.396V24ZM100.023 24H97.0917V9.93555H100.023V24Z" fill="white"/>
<path d="M113 0H5C2.23858 0 0 2.23858 0 5V28C0 30.7614 2.23858 33 5 33H113C115.761 33 118 30.7614 118 28V5C118 2.23858 115.761 0 113 0Z" fill="url(#paint0_linear_26_2)"/>
<path d="M4.32293 26.4688H26.6771C27.8449 26.4688 28.7917 25.522 28.7917 24.3542V8.64583C28.7917 7.47798 27.8449 6.53125 26.6771 6.53125H4.32293C3.15507 6.53125 2.20834 7.47798 2.20834 8.64583V24.3542C2.20834 25.522 3.15507 26.4688 4.32293 26.4688Z" fill="#E0E0E0"/>
<path d="M16.7083 26.4688H26.6771C27.8449 26.4688 28.7917 25.522 28.7917 24.3542V8.64583C28.7917 7.47798 27.8449 6.53125 26.6771 6.53125H4.32293C3.15507 6.53125 2.20834 7.47798 2.20834 8.64583L16.7083 26.4688Z" fill="#D9D9D9"/>
<path d="M5.0751 26.4688H26.6771C27.8449 26.4688 28.7917 25.5221 28.7917 24.3542V8.948L5.0751 26.4688Z" fill="#EEEEEE"/>
<path d="M16.5543 26.4688H26.6771C27.8449 26.4688 28.7917 25.5221 28.7917 24.3542V8.948L12.3408 21.1014L16.5543 26.4688Z" fill="#E0E0E0"/>
<path d="M26.6771 7.73964H4.32293C3.15507 7.73964 2.20834 7.47804 2.20834 8.64589V24.3542C2.20834 25.5221 3.15507 26.4688 4.32293 26.4688H5.22918V9.25006H25.7708V26.4688H26.6771C27.8449 26.4688 28.7917 25.5221 28.7917 24.3542V8.64589C28.7917 7.47804 27.8449 7.73964 26.6771 7.73964Z" fill="#CA3737"/>
<path d="M26.6771 6.53125H15.5H4.32293C3.15507 6.53125 2.20834 7.45925 2.20834 8.64583C2.20834 9.37446 3.12547 10.01 3.12547 10.01L15.5 18.7692L27.8745 10.0106C27.8745 10.0106 28.7917 9.37446 28.7917 8.64644C28.7917 7.45925 27.8449 6.53125 26.6771 6.53125Z" fill="#F5F5F5"/>
<path d="M27.0348 6.46143L15.4071 14.5681L3.77926 6.46143C2.8283 6.66503 2.11539 7.49757 2.11539 8.52647C2.11539 9.25509 3.03251 9.89068 3.03251 9.89068L15.4071 18.6499L27.7816 9.89128C27.7816 9.89128 28.6987 9.25509 28.6987 8.52707C28.6987 7.49757 27.9858 6.66503 27.0348 6.46143Z" fill="#E84F4B"/>
<defs>
<linearGradient id="paint0_linear_26_2" x1="0" y1="0" x2="0" y2="33" gradientUnits="userSpaceOnUse">
<stop stop-color="#BBBBBB" stop-opacity="0.1"/>
<stop offset="1" stop-opacity="0.1"/>
</linearGradient>
</defs>
</svg>
