<svg width="119" height="33" viewBox="0 0 119 33" fill="none" xmlns="http://www.w3.org/2000/svg">
<path d="M114 0H31V33H114C116.761 33 119 30.7614 119 28V5C119 2.23858 116.761 0 114 0Z" fill="#F9F9F9"/>
<path d="M114 0H5C2.23858 0 0 2.23858 0 5V28C0 30.7614 2.23858 33 5 33H114C116.761 33 119 30.7614 119 28V5C119 2.23858 116.761 0 114 0Z" fill="#F5F5F5"/>
<path d="M115 0L91 0C88.2386 0 86 2.23858 86 5V28C86 30.7614 88.2386 33 91 33H115V0Z" fill="#0288D1"/>
<path d="M91 33H114C116.761 33 119 30.7614 119 28V5C119 2.23858 116.761 0 114 0H91V33Z" fill="#0288D1"/>
<path d="M94 13.5417H97.75V27H94V13.5417ZM95.8637 11.9583H95.8427C94.7237 11.9583 94 11.078 94 9.97837C94 8.855 94.7462 8 95.8855 8C97.0262 8 97.729 8.855 97.75 9.97837C97.75 11.0772 97.0262 11.9583 95.8637 11.9583ZM112 27H108.25V19.7966C108.25 18.0565 107.331 16.869 105.856 16.869C104.73 16.869 104.121 17.6702 103.826 18.4445C103.718 18.7215 103.75 19.4879 103.75 19.875V27H100V13.5417H103.75V15.6127C104.291 14.7292 105.138 13.5417 107.304 13.5417C109.987 13.5417 111.999 15.3229 111.999 19.3003L112 27Z" fill="white"/>
<path d="M13.3462 27H2.92139V9.49512H6.86426V23.8018H13.3462V27ZM18.0285 12.5225C17.3775 12.5225 16.8444 12.3312 16.4294 11.9487C16.0144 11.5581 15.8068 11.082 15.8068 10.5205C15.8068 9.94271 16.0144 9.4707 16.4294 9.10449C16.8444 8.73828 17.3775 8.55518 18.0285 8.55518C18.6877 8.55518 19.2207 8.73828 19.6276 9.10449C20.0427 9.4707 20.2502 9.94271 20.2502 10.5205C20.2502 11.1064 20.0427 11.5866 19.6276 11.9609C19.2207 12.3353 18.6877 12.5225 18.0285 12.5225ZM19.9328 27H16.0754V14.5H19.9328V27ZM35.5526 27H31.7074V20.0542C31.7074 18.1174 31.0157 17.1489 29.6322 17.1489C28.9649 17.1489 28.4156 17.4053 27.9843 17.918C27.553 18.4307 27.3373 19.0817 27.3373 19.8711V27H23.4799V14.5H27.3373V16.4775H27.3861C28.3057 14.9557 29.6444 14.1948 31.4022 14.1948C34.1692 14.1948 35.5526 15.9119 35.5526 19.3462V27ZM51.441 27H46.8146L42.8229 20.7988H42.774V27H38.9166V8.49414H42.774V20.2739H42.8229L46.546 14.5H51.1236L46.6437 20.3716L51.441 27ZM64.0701 21.8486H55.9158C56.046 23.6634 57.1894 24.5708 59.346 24.5708C60.7213 24.5708 61.9298 24.2453 62.9715 23.5942V26.3774C61.8159 26.9959 60.3144 27.3052 58.4671 27.3052C56.4489 27.3052 54.8823 26.7477 53.7674 25.6328C52.6525 24.5098 52.095 22.9473 52.095 20.9453C52.095 18.8701 52.6972 17.2262 53.9017 16.0137C55.1061 14.8011 56.5872 14.1948 58.345 14.1948C60.1679 14.1948 61.5758 14.736 62.5686 15.8184C63.5696 16.9007 64.0701 18.3696 64.0701 20.2251V21.8486ZM60.4935 19.4805C60.4935 17.6901 59.7692 16.7949 58.3206 16.7949C57.7021 16.7949 57.165 17.0513 56.7093 17.564C56.2617 18.0767 55.9891 18.7155 55.8914 19.4805H60.4935ZM78.8965 27H75.0391V25.2788H74.9902C74.1113 26.6297 72.8215 27.3052 71.1206 27.3052C69.5581 27.3052 68.3008 26.7559 67.3486 25.6572C66.3965 24.5505 65.9204 23.0083 65.9204 21.0308C65.9204 18.9637 66.4453 17.3076 67.4951 16.0625C68.5449 14.8174 69.9202 14.1948 71.6211 14.1948C73.2324 14.1948 74.3555 14.7726 74.9902 15.9282H75.0391V8.49414H78.8965V27ZM75.1123 20.9209V19.981C75.1123 19.1672 74.8763 18.4917 74.4043 17.9546C73.9323 17.4175 73.3179 17.1489 72.561 17.1489C71.7065 17.1489 71.0392 17.4867 70.5591 18.1621C70.0789 18.8294 69.8389 19.749 69.8389 20.9209C69.8389 22.0195 70.0708 22.8659 70.5347 23.46C70.9985 24.054 71.6414 24.3511 72.4634 24.3511C73.2446 24.3511 73.8794 24.0378 74.3677 23.4111C74.8641 22.7845 75.1123 21.9544 75.1123 20.9209Z" fill="#0288D1"/>
</svg>
