<svg width="134" height="33" viewBox="0 0 134 33" fill="none" xmlns="http://www.w3.org/2000/svg">
<path d="M129 0H31V33H129C131.761 33 134 30.7614 134 28V5C134 2.23858 131.761 0 129 0Z" fill="#0F1418"/>
<path d="M31 0H5C2.23858 0 0 2.23858 0 5V28C0 30.7614 2.23858 33 5 33H31V0Z" fill="#1976D2"/>
<path d="M37.5417 22V11.4971H41.365C42.5368 11.4971 43.4377 11.7119 44.0676 12.1416C44.6975 12.5713 45.0124 13.1768 45.0124 13.958C45.0124 14.5244 44.8195 15.02 44.4338 15.4448C44.0529 15.8696 43.5647 16.165 42.969 16.3311V16.3604C43.716 16.4531 44.3117 16.729 44.7561 17.188C45.2053 17.647 45.4299 18.2061 45.4299 18.8652C45.4299 19.8271 45.0857 20.5913 44.3972 21.1577C43.7087 21.7192 42.7688 22 41.5774 22H37.5417ZM39.9074 13.2402V15.7305H40.9475C41.4358 15.7305 41.8191 15.6133 42.0974 15.3789C42.3806 15.1396 42.5222 14.8125 42.5222 14.3975C42.5222 13.626 41.946 13.2402 40.7937 13.2402H39.9074ZM39.9074 17.4883V20.2568H41.1892C41.7361 20.2568 42.1633 20.1299 42.4709 19.876C42.7834 19.6221 42.9397 19.2754 42.9397 18.8359C42.9397 18.416 42.7859 18.0864 42.4782 17.8472C42.1755 17.6079 41.7507 17.4883 41.2038 17.4883H39.9074ZM56.6036 22H53.6153L50.5537 17.437C50.4952 17.3491 50.4024 17.1562 50.2754 16.8584H50.2388V22H47.8731V11.4971H50.2388V16.4629H50.2754C50.334 16.3262 50.4317 16.1309 50.5684 15.877L53.4688 11.4971H56.2886L52.6265 16.5068L56.6036 22ZM62.2181 22.1831C60.7142 22.1831 59.4886 21.6948 58.5414 20.7183C57.5941 19.7368 57.1205 18.46 57.1205 16.8877C57.1205 15.2275 57.6014 13.8848 58.5633 12.8594C59.5253 11.834 60.7997 11.3213 62.3866 11.3213C63.8856 11.3213 65.0965 11.812 66.0194 12.7935C66.9471 13.7749 67.411 15.0688 67.411 16.6753C67.411 18.3257 66.93 19.6562 65.9681 20.667C65.0111 21.6777 63.7611 22.1831 62.2181 22.1831ZM62.3207 13.3574C61.4906 13.3574 60.8314 13.6699 60.3431 14.2949C59.8548 14.915 59.6107 15.7378 59.6107 16.7632C59.6107 17.8032 59.8548 18.626 60.3431 19.2314C60.8314 19.8369 61.4711 20.1396 62.2621 20.1396C63.0775 20.1396 63.7245 19.8467 64.203 19.2607C64.6815 18.6699 64.9208 17.8521 64.9208 16.8071C64.9208 15.7183 64.6888 14.8711 64.225 14.2656C63.7611 13.6602 63.1263 13.3574 62.3207 13.3574ZM78.9582 22H76.5851V17.7227H72.2346V22H69.8688V11.4971H72.2346V15.6865H76.5851V11.4971H78.9582V22ZM89.4507 13.4233H86.4551V22H84.082V13.4233H81.1011V11.4971H89.4507V13.4233ZM99.9139 22H97.3358L96.5887 19.6636H92.8533L92.1136 22H89.5501L93.3734 11.4971H96.1785L99.9139 22ZM96.0467 17.8472L94.9188 14.3169C94.8358 14.0532 94.7772 13.7383 94.743 13.3721H94.6844C94.66 13.6797 94.5989 13.9849 94.5013 14.2876L93.3587 17.8472H96.0467ZM110.663 22H107.674L104.613 17.437C104.554 17.3491 104.462 17.1562 104.335 16.8584H104.298V22H101.932V11.4971H104.298V16.4629H104.335C104.393 16.3262 104.491 16.1309 104.628 15.877L107.528 11.4971H110.348L106.686 16.5068L110.663 22ZM119.756 13.4233H116.761V22H114.388V13.4233H111.407V11.4971H119.756V13.4233ZM128.176 22H121.877V11.4971H127.934V13.4233H124.243V15.7598H127.678V17.6787H124.243V20.0811H128.176V22Z" fill="white"/>
<path d="M129 0H5C2.23858 0 0 2.23858 0 5V28C0 30.7614 2.23858 33 5 33H129C131.761 33 134 30.7614 134 28V5C134 2.23858 131.761 0 129 0Z" fill="url(#paint0_linear_26_17)"/>
<path d="M27.5206 10.8011C27.5697 10.6575 27.5932 10.5243 27.5868 10.4054C27.5708 10.061 27.305 9.81079 26.6795 9.81079H23.8851C23.1796 9.81079 22.854 10.1913 22.664 10.5728C22.664 10.5728 20.9221 13.7684 18.9143 15.8757C18.2632 16.4855 17.9323 16.4703 17.5801 16.4703C17.3911 16.4703 16.914 16.2667 16.914 15.7082V10.7755C16.914 10.1152 16.7294 9.81079 16.1327 9.81079H11.1704C10.736 9.81079 10.5097 10.1152 10.5097 10.4206C10.5097 11.0552 11.4682 11.2074 11.5771 12.9855V16.4322C11.5771 17.2694 11.4138 17.4216 11.0615 17.4216C10.1115 17.4216 8.24148 14.5675 6.98944 10.8268C6.71832 10.0905 6.44721 9.81079 5.74166 9.81079H2.92056C2.10614 9.81079 1.97058 10.1666 1.97058 10.5471C1.97058 11.2331 2.61101 14.9414 6.10671 19.2054C8.64175 22.2973 11.9816 24.0811 14.9383 24.0811C16.7294 24.0811 16.9129 23.6748 16.9129 23.0403V20.2129C16.914 19.4508 17.1093 19.3243 17.6793 19.3243C18.086 19.3243 18.9154 19.5621 20.5164 21.227C22.363 23.1468 22.6982 24.0811 23.757 24.0811H26.5515C27.2004 24.0811 27.5729 23.8385 27.5879 23.3675C27.5911 23.2477 27.5719 23.1135 27.5281 22.9642C27.321 22.4162 26.3711 21.0767 25.1863 19.8C24.5298 19.0931 23.8819 18.3929 23.5841 18.0124C23.3845 17.7641 23.3087 17.589 23.3183 17.4216C23.3279 17.2456 23.4304 17.0782 23.5841 16.8441C23.5564 16.8441 27.1684 12.3243 27.5206 10.8011Z" fill="white"/>
<defs>
<linearGradient id="paint0_linear_26_17" x1="0" y1="0" x2="0" y2="33" gradientUnits="userSpaceOnUse">
<stop stop-color="#BBBBBB" stop-opacity="0.1"/>
<stop offset="1" stop-opacity="0.1"/>
</linearGradient>
</defs>
</svg>
