<svg width="250" height="250" viewBox="0 0 250 250" fill="none" xmlns="http://www.w3.org/2000/svg">
<path d="M46.1094 212.508L28.5625 15.625H221.438L203.867 212.477L124.883 234.375L46.1094 212.508Z" fill="#1572B6"/>
<path d="M125 103.055H156.953L159.156 78.3281H125V54.1797H125.086H185.547L184.969 60.6562L179.039 127.203H125V103.055Z" fill="white"/>
<path d="M125.148 165.766L125.039 165.797L98.1484 158.531L96.4297 139.273H83.3594H72.1875L75.5703 177.188L125.031 190.922L125.148 190.891V165.766Z" fill="#EBEBEB"/>
<path d="M154.898 126.18L151.992 158.516L125.062 165.781V190.906L174.563 177.188L174.93 173.109L179.125 126.18H154.898Z" fill="white"/>
<path d="M125.086 54.1797V69.1797V78.2656V78.3281H66.8359H66.7578L66.2734 72.8984L65.1719 60.6563L64.5938 54.1797H125.086Z" fill="#EBEBEB"/>
<path d="M125 103.055V118.055V127.141V127.203H98.5234H98.4453L97.9609 121.773L96.8672 109.531L96.2891 103.055H125Z" fill="#EBEBEB"/>
</svg>
