<svg width="250" height="250" viewBox="0 0 250 250" fill="none" xmlns="http://www.w3.org/2000/svg">
<path d="M46.1094 212.508L28.5547 15.625H221.445L203.867 212.477L124.883 234.375L46.1094 212.508Z" fill="#E44F26"/>
<path d="M125 104.742H93.0469L90.8438 80.0156H125V55.8672H124.914H64.4531L65.0313 62.3516L70.9609 128.891H125V104.742Z" fill="#EBEBEB"/>
<path d="M125 167.453L124.891 167.484L98 160.227L96.2813 140.969H83.2109H72.0391L75.4219 178.875L124.891 192.609L125 192.578V167.453Z" fill="#EBEBEB"/>
<path d="M124.914 104.742V128.891H154.648L151.852 160.211L124.914 167.477V192.602L174.422 178.875L174.781 174.797L180.453 111.227L181.047 104.742H174.539H124.914Z" fill="white"/>
<path d="M124.914 55.8672V70.8672V79.9609V80.0156H183.164H183.242L183.727 74.5938L184.828 62.3516L185.406 55.8672H124.914Z" fill="white"/>
</svg>
